<?xml version="1.0" standalone="no"?>
<!DOCTYPE svg PUBLIC "-//W3C//DTD SVG 20010904//EN"
 "http://www.w3.org/TR/2001/REC-SVG-20010904/DTD/svg10.dtd">
<svg version="1.0" xmlns="http://www.w3.org/2000/svg"
 width="512.000000pt" height="512.000000pt" viewBox="0 0 512.000000 512.000000"
 preserveAspectRatio="xMidYMid meet">

<g transform="translate(0.000000,512.000000) scale(0.100000,-0.100000)"
fill="#000000" stroke="none">
<path d="M2440 3539 c-223 -28 -417 -124 -580 -288 -154 -154 -256 -361 -276
-558 l-7 -63 282 2 282 3 20 59 c59 174 215 286 399 286 184 0 340 -112 399
-286 l20 -59 282 -3 282 -2 -7 63 c-7 72 -32 165 -70 256 -89 218 -295 424
-515 516 -174 72 -337 96 -511 74z"/>
<path d="M2497 2850 c-228 -57 -309 -336 -144 -498 118 -116 301 -115 415 1
175 179 67 475 -183 501 -27 3 -67 1 -88 -4z"/>
<path d="M1584 2427 c20 -199 123 -405 280 -563 290 -289 699 -368 1085 -210
217 88 429 300 517 517 38 91 63 184 70 256 l7 63 -283 -2 -282 -3 -18 -56
c-52 -171 -216 -289 -400 -289 -184 0 -348 118 -400 289 l-18 56 -282 3 -283
2 7 -63z"/>
</g>
</svg>
